# xmcd
#
# Track frame offsets:
#	150
#	19875
#	36650
#	55003
#	71642
#	91561
#	112951
#	130420
#	146958
#	166547
#
# Disc length: 2497 seconds
#
# Revision: 393219
# Processed by: cddbd v1.5.2PL0 Copyright (c) Steve Scherf et al.
# Submitted via: EZCDAudioConverter 8.0.2.1
#
DISCID=8509bf0a
DTITLE=Hồ Bích Ngọc - Bước Kế Tiếp
DYEAR=2009
DGENRE=World Pop
TTITLE0=Có khi nào
TTITLE1=Một ngày mới
TTITLE2=Lời nhắn nhủ
TTITLE3=Broken heart
TTITLE4=Những ngày thứ 7 trong năm
TTITLE5=Một ngày của yêu thương
TTITLE6=Lỡ hẹn
TTITLE7=Có khi nào (remix)
TTITLE8=Vẫn mong được bên anh
TTITLE9=Something in you
EXTD=
EXTT0=
EXTT1=
EXTT2=
EXTT3=
EXTT4=
EXTT5=
EXTT6=
EXTT7=
EXTT8=
EXTT9=
PLAYORDER=
